Coordinates
version=1
nRows=38
nColumns=38
inDegrees=no

Units are S.I. units (second, meters, Newtons, ...)
If the header above contains a line with 'inDegrees', this indicates whether rotational values are in degrees (yes) or radians (no).

endheader
time	pelvis_tilt	pelvis_list	pelvis_rotation	pelvis_tx	pelvis_ty	pelvis_tz	hip_flexion_r	hip_adduction_r	hip_rotation_r	knee_angle_r	ankle_angle_r	subtalar_angle_r	mtp_angle_r	hip_flexion_l	hip_adduction_l	hip_rotation_l	knee_angle_l	ankle_angle_l	subtalar_angle_l	mtp_angle_l	lumbar_extension	lumbar_bending	lumbar_rotation	arm_flex_r	arm_add_r	arm_rot_r	elbow_flex_r	pro_sup_r	wrist_flex_r	wrist_dev_r	arm_flex_l	arm_add_l	arm_rot_l	elbow_flex_l	pro_sup_l	wrist_flex_l	wrist_dev_l
1.56	-1.0021	1.3554	2.59649	0.597736	0.601558	1.01119	0.525159	-0.303286	0.280697	1.43049	-0.315729	0	0	0.273248	0.149455	-0.281571	0.451301	-0.163382	0	0	-0.0841155	-0.194333	0.211105	-0.135649	-0.565703	0.601174	0.976619	0.613418	0	0	0.0700942	-0.503337	0.688765	0.914848	0.795408	0	0
1.57	-1.00146	1.35746	2.59762	0.595974	0.610862	1.01217	0.5429	-0.291351	0.286965	1.42018	-0.307276	0	0	0.258142	0.149522	-0.283615	0.445667	-0.161658	0	0	-0.0865908	-0.192245	0.20754	-0.13686	-0.56372	0.594767	0.976707	0.615604	0	0	0.0721124	-0.5009	0.689937	0.910886	0.795666	0	0
1.58	-1.0014	1.35947	2.59939	0.594196	0.620202	1.01307	0.55909	-0.280752	0.291397	1.40658	-0.294217	0	0	0.242411	0.149821	-0.28517	0.439326	-0.159782	0	0	-0.088467	-0.190245	0.203053	-0.13547	-0.562691	0.592973	0.975687	0.612142	0	0	0.0730449	-0.498791	0.690788	0.907184	0.795003	0	0
1.59	-1.00383	1.36194	2.60295	0.59251	0.629565	1.01395	0.574162	-0.269219	0.297299	1.38979	-0.278611	0	0	0.224731	0.150107	-0.286532	0.4304	-0.157014	0	0	-0.0904579	-0.187994	0.198885	-0.132692	-0.562449	0.592583	0.974014	0.608645	0	0	0.073467	-0.495936	0.690875	0.902466	0.794544	0	0
1.6	-1.00687	1.36439	2.60757	0.590805	0.638883	1.01469	0.588671	-0.258572	0.302547	1.37061	-0.266438	0	0	0.207602	0.150643	-0.287068	0.422145	-0.154438	0	0	-0.0928018	-0.185996	0.194083	-0.128744	-0.562735	0.594087	0.972277	0.607792	0	0	0.0735359	-0.493177	0.690478	0.897965	0.794383	0	0
1.61	-1.01123	1.36678	2.61368	0.589146	0.648164	1.0153	0.600746	-0.25	0.305267	1.34665	-0.254416	0	0	0.190461	0.151433	-0.286852	0.414108	-0.15178	0	0	-0.0956037	-0.184412	0.188788	-0.12393	-0.563007	0.595485	0.970377	0.60723	0	0	0.0730019	-0.490381	0.689049	0.89364	0.79416	0	0
1.62	-1.01803	1.36919	2.62219	0.587538	0.657418	1.01588	0.610715	-0.242439	0.307524	1.31935	-0.23648	0	0	0.171925	0.153254	-0.283654	0.403312	-0.148567	0	0	-0.0987948	-0.183317	0.1761	-0.106626	-0.564545	0.616665	0.96442	0.598374	0	0	0.06164	-0.487342	0.668821	0.893187	0.803033	0	0
1.63	-1.02368	1.37129	2.62941	0.586036	0.666581	1.01619	0.621503	-0.235242	0.310227	1.29076	-0.226664	0	0	0.155342	0.15418	-0.283141	0.396365	-0.145209	0	0	-0.102495	-0.182243	0.171403	-0.100597	-0.564557	0.620967	0.962165	0.599833	0	0	0.0610703	-0.484444	0.6659	0.889898	0.804443	0	0
1.64	-1.0281	1.37304	2.63548	0.584632	0.675682	1.01629	0.632269	-0.228775	0.313016	1.26065	-0.218497	0	0	0.139905	0.154853	-0.282894	0.390832	-0.141815	0	0	-0.106228	-0.181499	0.167726	-0.0955947	-0.564678	0.624356	0.960321	0.602992	0	0	0.0613789	-0.481975	0.66344	0.887505	0.806799	0	0
1.65	-1.03257	1.37448	2.64145	0.583361	0.684768	1.0162	0.64224	-0.223237	0.315743	1.22886	-0.207205	0	0	0.124489	0.155835	-0.28184	0.384532	-0.137876	0	0	-0.108402	-0.180925	0.164943	-0.0894437	-0.565996	0.632413	0.957488	0.592152	0	0	0.063721	-0.481172	0.667189	0.884989	0.802316	0	0
1.66	-1.03639	1.3756	2.64647	0.582247	0.69385	1.01591	0.65176	-0.218311	0.318376	1.19545	-0.198743	0	0	0.10984	0.156593	-0.281768	0.379095	-0.134126	0	0	-0.11156	-0.180686	0.163372	-0.0860885	-0.566312	0.63397	0.955234	0.58817	0	0	0.0662169	-0.480527	0.668856	0.883888	0.801834	0	0
1.67	-1.04019	1.37647	2.65123	0.581243	0.702896	1.01547	0.660469	-0.213955	0.321127	1.16049	-0.192157	0	0	0.0955923	0.157446	-0.281499	0.373984	-0.130112	0	0	-0.114797	-0.180672	0.162504	-0.0833978	-0.5669	0.63518	0.953334	0.584695	0	0	0.0688498	-0.480387	0.670634	0.883809	0.800774	0	0
1.68	-1.04319	1.37698	2.65509	0.580302	0.71195	1.01488	0.668302	-0.210267	0.324383	1.12343	-0.185383	0	0	0.0819082	0.158389	-0.280943	0.369383	-0.125931	0	0	-0.117802	-0.180946	0.162172	-0.0819761	-0.567533	0.634642	0.952306	0.580062	0	0	0.0711082	-0.480372	0.671715	0.884588	0.800176	0	0
1.69	-1.04463	1.37713	2.65737	0.579412	0.721018	1.01413	0.676074	-0.207173	0.327653	1.08527	-0.180081	0	0	0.0693686	0.159051	-0.281136	0.366471	-0.122579	0	0	-0.120365	-0.181374	0.162629	-0.082095	-0.568021	0.631568	0.951966	0.581542	0	0	0.0733412	-0.480247	0.672728	0.885861	0.799933	0	0
1.7	-1.04667	1.37711	2.66004	0.578617	0.730164	1.0133	0.682131	-0.204529	0.331512	1.04487	-0.172007	0	0	0.0563472	0.160172	-0.280306	0.362336	-0.118456	0	0	-0.122321	-0.181948	0.162858	-0.0807094	-0.569377	0.633167	0.952133	0.578662	0	0	0.0745675	-0.480488	0.673089	0.887822	0.799721	0	0
1.71	-1.04672	1.3768	2.66052	0.577921	0.739397	1.01233	0.686698	-0.201941	0.336015	1.00183	-0.163744	0	0	0.0440907	0.16107	-0.279968	0.358871	-0.114242	0	0	-0.123485	-0.182716	0.163338	-0.0801121	-0.570913	0.63312	0.953348	0.576869	0	0	0.0750756	-0.480962	0.672591	0.890445	0.800587	0	0
1.72	-1.04378	1.37602	2.65786	0.577319	0.748704	1.01121	0.689903	-0.199554	0.341135	0.955722	-0.156274	0	0	0.0328895	0.161785	-0.280269	0.356167	-0.110303	0	0	-0.123736	-0.183666	0.164204	-0.0802072	-0.572438	0.632848	0.955341	0.577185	0	0	0.0753779	-0.481656	0.672026	0.893236	0.801764	0	0
1.73	-1.03871	1.37484	2.65303	0.57679	0.758091	1.00995	0.691641	-0.197755	0.346534	0.90639	-0.15066	0	0	0.0224796	0.162431	-0.281033	0.353945	-0.106269	0	0	-0.123379	-0.184781	0.165407	-0.0815125	-0.573924	0.631128	0.958501	0.577055	0	0	0.0755025	-0.482544	0.671293	0.896355	0.802885	0	0
1.74	-1.03091	1.3731	2.64543	0.576319	0.767559	1.00853	0.692415	-0.196715	0.351788	0.85464	-0.148686	0	0	0.0133685	0.162977	-0.282568	0.352818	-0.102349	0	0	-0.122007	-0.186039	0.167031	-0.0835017	-0.57535	0.629325	0.961909	0.578766	0	0	0.075612	-0.483552	0.670723	0.899451	0.80408	0	0
1.75	-1.02119	1.37119	2.6358	0.575916	0.777121	1.00698	0.691971	-0.196262	0.356133	0.800661	-0.151763	0	0	0.00544472	0.162955	-0.285804	0.353532	-0.0970638	0	0	-0.121366	-0.18736	0.168502	-0.0870552	-0.576098	0.623883	0.96641	0.592609	0	0	0.0735544	-0.483747	0.663755	0.903872	0.813275	0	0
1.76	-1.00812	1.36869	2.62287	0.575581	0.786746	1.00526	0.691747	-0.196505	0.35869	0.747729	-0.151939	0	0	-0.00105817	0.162865	-0.289	0.355348	-0.0927765	0	0	-0.117354	-0.188537	0.171222	-0.0901374	-0.577622	0.622797	0.969434	0.595442	0	0	0.074675	-0.485478	0.667214	0.906126	0.810925	0	0
1.77	-0.993165	1.3659	2.60801	0.575327	0.796442	1.00342	0.691728	-0.197093	0.359224	0.697449	-0.146213	0	0	-0.00672418	0.162722	-0.291721	0.357651	-0.0887482	0	0	-0.112988	-0.189727	0.173715	-0.0936334	-0.57855	0.620676	0.972414	0.598687	0	0	0.0747401	-0.486925	0.668436	0.908412	0.810702	0	0
1.78	-0.980429	1.36368	2.5959	0.575056	0.806342	1.00164	0.689537	-0.198447	0.359134	0.648409	-0.132673	0	0	-0.0127564	0.161846	-0.294969	0.361253	-0.0841893	0	0	-0.109304	-0.190378	0.175815	-0.0973687	-0.578998	0.618292	0.974714	0.602461	0	0	0.0746376	-0.487977	0.66953	0.909995	0.811057	0	0
1.79	-0.969502	1.36202	2.58612	0.574772	0.816459	0.999893	0.685601	-0.20003	0.358352	0.602061	-0.113172	0	0	-0.0192746	0.160323	-0.298486	0.36567	-0.0798014	0	0	-0.106218	-0.190423	0.177418	-0.101612	-0.579376	0.615404	0.977329	0.604417	0	0	0.0740492	-0.488596	0.670039	0.911065	0.811868	0	0
1.8	-0.960405	1.36103	2.57842	0.57453	0.826736	0.998198	0.680358	-0.201277	0.357095	0.559363	-0.0935314	0	0	-0.0261762	0.158034	-0.302382	0.371185	-0.0756442	0	0	-0.103612	-0.189911	0.178747	-0.105507	-0.580143	0.614069	0.980189	0.606646	0	0	0.073101	-0.488982	0.670178	0.911964	0.813148	0	0
1.81	-0.954112	1.36073	2.57368	0.57433	0.837145	0.996583	0.674841	-0.201954	0.355287	0.523009	-0.0782272	0	0	-0.0339439	0.155335	-0.306022	0.377102	-0.0716626	0	0	-0.101619	-0.188968	0.179697	-0.109039	-0.581551	0.613841	0.983508	0.610085	0	0	0.0717485	-0.489396	0.669807	0.913268	0.814699	0	0
1.82	-0.950582	1.3611	2.57201	0.574154	0.847719	0.995054	0.669972	-0.201768	0.352897	0.495895	-0.0669281	0	0	-0.0423751	0.1522	-0.309072	0.383852	-0.0678094	0	0	-0.100327	-0.187564	0.180102	-0.112679	-0.583395	0.613137	0.987479	0.613875	0	0	0.0699859	-0.489947	0.669021	0.915067	0.816207	0	0
1.83	-0.946941	1.362	2.57128	0.573965	0.858558	0.99356	0.666348	-0.200682	0.349467	0.479886	-0.0565085	0	0	-0.0509155	0.148281	-0.310732	0.39144	-0.0641403	0	0	-0.099124	-0.185497	0.179629	-0.117117	-0.584617	0.611259	0.991294	0.616573	0	0	0.0678886	-0.490672	0.668283	0.91678	0.818004	0	0
1.84	-0.943727	1.36329	2.57172	0.573794	0.869629	0.992068	0.66467	-0.198567	0.345752	0.477018	-0.0454592	0	0	-0.0596781	0.14374	-0.311367	0.399648	-0.060716	0	0	-0.0979987	-0.183026	0.178627	-0.122243	-0.585161	0.608762	0.994842	0.618092	0	0	0.0656287	-0.491483	0.667818	0.918218	0.819653	0	0
1.85	-0.941257	1.36489	2.57322	0.573752	0.880863	0.990513	0.665902	-0.194977	0.343063	0.489779	-0.0334029	0	0	-0.06769	0.137909	-0.313283	0.410848	-0.0557234	0	0	-0.0976944	-0.180732	0.174039	-0.123955	-0.585846	0.610465	0.998357	0.617456	0	0	0.057484	-0.492059	0.656109	0.92217	0.829669	0	0
1.86	-0.941556	1.36679	2.57771	0.573855	0.892269	0.988972	0.669584	-0.190281	0.342294	0.516675	-0.0319916	0	0	-0.0765616	0.132136	-0.312871	0.421111	-0.0536967	0	0	-0.0966103	-0.178318	0.173587	-0.130819	-0.585821	0.606468	1.00228	0.614643	0	0	0.0567968	-0.493819	0.660038	0.92263	0.827287	0	0
1.87	-0.943444	1.36898	2.58398	0.574061	0.9039	0.987356	0.676089	-0.184691	0.342865	0.557193	-0.0353934	0	0	-0.0851593	0.125346	-0.313661	0.433775	-0.0510714	0	0	-0.0955421	-0.17583	0.172796	-0.137313	-0.585716	0.603873	1.00565	0.61768	0	0	0.0551565	-0.495949	0.663065	0.9236	0.825448	0	0
1.88	-0.945884	1.37104	2.59079	0.574341	0.915752	0.985655	0.68447	-0.179625	0.341986	0.603854	-0.0405346	0	0	-0.0934856	0.118472	-0.313614	0.447098	-0.0494754	0	0	-0.0939901	-0.173566	0.171375	-0.143733	-0.585448	0.601944	1.00919	0.623519	0	0	0.0518253	-0.498404	0.663963	0.925397	0.824733	0	0
1.89	-0.94892	1.37306	2.59813	0.574682	0.9278	0.983912	0.691887	-0.175788	0.340029	0.646382	-0.0451166	0	0	-0.101307	0.111433	-0.312872	0.461501	-0.0487855	0	0	-0.0922951	-0.171382	0.169672	-0.151249	-0.584852	0.597699	1.01373	0.625679	0	0	0.0474647	-0.501133	0.6635	0.927973	0.824652	0	0
1.9	-0.954685	1.37492	2.60717	0.575193	0.939978	0.982149	0.697978	-0.172549	0.33912	0.682183	-0.0534541	0	0	-0.10866	0.104409	-0.313389	0.477842	-0.0486422	0	0	-0.0908374	-0.169628	0.168739	-0.159356	-0.584322	0.592377	1.01923	0.626755	0	0	0.0426388	-0.504054	0.662315	0.931233	0.82454	0	0
1.91	-0.959387	1.3766	2.61505	0.575797	0.952348	0.980444	0.702652	-0.170282	0.33839	0.711993	-0.0691308	0	0	-0.114627	0.0968736	-0.313929	0.496343	-0.0497924	0	0	-0.0887514	-0.167851	0.16782	-0.167927	-0.583144	0.586507	1.02472	0.625647	0	0	0.0373265	-0.50676	0.660782	0.933834	0.824858	0	0
1.92	-0.961745	1.37818	2.61977	0.576604	0.964765	0.978833	0.706464	-0.168837	0.337727	0.73902	-0.0903539	0	0	-0.117942	0.0884285	-0.315616	0.518804	-0.0526601	0	0	-0.0860552	-0.165997	0.167729	-0.176247	-0.581207	0.580955	1.0295	0.621913	0	0	0.0320021	-0.509012	0.659118	0.935403	0.825961	0	0
1.93	-0.960145	1.37992	2.61978	0.577642	0.977167	0.977422	0.707979	-0.168047	0.336103	0.7619	-0.108203	0	0	-0.118358	0.0789572	-0.316757	0.544787	-0.0576121	0	0	-0.0822541	-0.163819	0.167941	-0.182201	-0.579218	0.57917	1.03204	0.621844	0	0	0.0264564	-0.510785	0.65719	0.935381	0.827517	0	0
